<?xml version="1.0" encoding="UTF-8" standalone="no"?>
<!-- Created with Inkscape (http://www.inkscape.org/) -->

<svg
   xmlns:dc="http://purl.org/dc/elements/1.1/"
   xmlns:cc="http://creativecommons.org/ns#"
   xmlns:rdf="http://www.w3.org/1999/02/22-rdf-syntax-ns#"
   xmlns:svg="http://www.w3.org/2000/svg"
   xmlns="http://www.w3.org/2000/svg"
   xmlns:sodipodi="http://sodipodi.sourceforge.net/DTD/sodipodi-0.dtd"
   xmlns:inkscape="http://www.inkscape.org/namespaces/inkscape"
   width="194.93738mm"
   height="84.493103mm"
   viewBox="0 0 690.72299 299.38501"
   id="svg4820"
   version="1.1"
   inkscape:version="0.91 r13725"
   sodipodi:docname="jv.svg">
  <defs
     id="defs4822" />
  <sodipodi:namedview
     id="base"
     pagecolor="#ffffff"
     bordercolor="#666666"
     borderopacity="1.0"
     inkscape:pageopacity="0.0"
     inkscape:pageshadow="2"
     inkscape:zoom="0.49497475"
     inkscape:cx="1104.8316"
     inkscape:cy="210.41138"
     inkscape:document-units="px"
     inkscape:current-layer="layer1"
     showgrid="false"
     fit-margin-top="0"
     fit-margin-left="0"
     fit-margin-right="0"
     fit-margin-bottom="0"
     inkscape:window-width="1366"
     inkscape:window-height="716"
     inkscape:window-x="-8"
     inkscape:window-y="-8"
     inkscape:window-maximized="1" />
  <metadata
     id="metadata4825">
    <rdf:RDF>
      <cc:Work
         rdf:about="">
        <dc:format>image/svg+xml</dc:format>
        <dc:type
           rdf:resource="http://purl.org/dc/dcmitype/StillImage" />
        <dc:title></dc:title>
      </cc:Work>
    </rdf:RDF>
  </metadata>
  <g
     inkscape:label="Capa 1"
     inkscape:groupmode="layer"
     id="layer1"
     transform="translate(5.192968e-6,-0.40577013)">
    <g
       transform="matrix(1.2500006,0,0,1.2500015,-135.01472,-123.39332)"
       id="surface1">
      <path
         inkscape:connector-curvature="0"
         style="fill:#025c51;fill-opacity:1;fill-rule:evenodd;stroke:none"
         d="m 132.31641,299.05469 -24.30469,39.49218 c 112.51953,-31.55859 184.9414,-53.35937 250.30078,-66.33984 16.87109,-1.16406 32.84766,-6.49219 48.80859,-19.48828 -3.58593,-0.96094 -7.03125,-2.94141 -9.85547,-6.53516 -2.5664,-5.74609 -3.46875,-11.3125 -3.41015,-16.77734 -6.13672,3.41406 -12.10156,6.80078 -17.50781,10.19531 -2.24219,1.40625 -22.94922,3.82422 -27.52344,5.125 -1.38672,0.39453 -2.79297,0.78906 -4.22266,1.17969 l -1.76562,8.65234 32.69922,-4.8125 3.90625,-0.5 c -0.30079,0.42578 7.03125,7.53516 -2.16797,11.46094 -27.78516,3.80078 -55.05469,8.92188 -82.73047,13.25781 -4.73828,0.74219 -9.21485,2.60547 -13.92188,3.05469 -7.34765,0.69922 -10.5,-1.95703 -11.51953,-6.78906 -0.6875,-3.27735 -0.14453,-6.36328 1.04688,-9.3125 -5.64844,1.26562 -11.29297,2.57422 -16.94141,3.92187 -0.35937,1.78125 -0.70703,3.5586 -1.04297,5.33985 -0.65234,3.46093 -2.02344,6.92187 -7.98828,10.38281 l -78.69922,16.83984 c -0.043,-2.89062 0.13281,-6 1,-8.96875 -11.38672,3.42969 -22.77344,6.97657 -34.16015,10.6211 z m 332.99609,-88.04297 6.46484,-2.64844 c 4.51953,-8.36719 13.27735,-17.51953 20.30078,-24.09375 4.76563,-3.86719 9.4336,-6.01953 13.96485,-8.21094 -2.46875,0.85938 -4.78516,1.69141 -6.92188,2.4961 -16.9414,6.37109 -9.29687,4.21484 -21.85937,8.24609 -0.72656,0.37891 -1.51563,0.75391 -2.35547,1.12891 -3.22266,9.3125 -6.40625,16.85156 -9.59375,23.08203 z m 28.86719,-12.65625 27.08593,-13.79297 22.11719,-10.43359 c 0.19922,-1.35938 0.48828,-2.73047 0.91797,-4.11329 0.62891,-2.04687 3.48047,-5.51953 5.35156,-6.34375 2.5586,-1.13281 6.58594,0.0742 9.23828,2.76563 l 0.22657,-0.89844 c 0.40625,-0.41406 2.76562,-2.52344 10.21875,-3.65625 l 91.2539,-43.04297 c -17.87109,8.6211 -62.8164,23.41797 -93.82031,36.03125 -14.625,5.94922 -32.12891,11.61719 -47.20703,16.61328 1.89453,0.78516 2.91016,2.79297 3.88281,5.03907 1.08203,2.5039 2.25781,3.21093 -0.45703,4.10937 -9.09766,3.03125 -14.90625,5.19531 -22.96875,12.08985 -1.83984,1.27734 -3.85937,3.40234 -5.83984,5.63281 z m -34.19141,-4.9336 c -12.69531,4.40235 -27.94141,10.01954 -38.18359,19.99219 -3.62891,2.26563 -7.42578,4.4961 -11.30078,6.70313 -0.75,3.72265 -1.46485,7.45312 -2.16407,11.18359 1.51172,23.81641 25.81641,-5.39844 31.49219,-11.07422 9.875,-8.92969 16.05469,-17.77344 20.15625,-26.80469 z m -130.08203,55.80469 c -14.91797,2.46875 -29.83984,5.29297 -44.75781,8.42969 -1.92578,3.39453 -1.90625,5.73828 -0.41407,6.23047 1.30469,0.42578 4.13282,1.91406 6.75782,0.89062 l 36.61718,-7.80078 z"
         id="path5" />
      <path
         inkscape:connector-curvature="0"
         style="fill:#73ab17;fill-opacity:1;fill-rule:evenodd;stroke:none"
         d="m 158.19141,226.13281 -25.3125,39.8086 c 26.4414,-5.64063 50.27734,-12.63282 72.51953,-18.94532 -9.21094,-6.05078 -13.02735,-14.08984 -15.63282,-20.51953 -0.32812,-2 -0.51562,-3.9375 -0.57031,-5.8164 z m 61.78906,16.78516 c 7.97265,-2.1836 15.76562,-4.21485 23.41797,-5.98828 -0.008,0.10937 0.20703,0.1289 0.62109,0.0664 l 6.51953,-27.16015 -47.64062,8.40625 c -0.19532,15.60937 11.16797,22.9375 17.08203,24.67578 z m 40.53125,-10.0586 c 4.14062,-0.97656 8.90625,-2.0039 14.15234,-2.9375 l 0.59766,-0.10937 c 0.61719,-2.79297 2.04297,-5.17969 5.03906,-8.43359 l 15.28516,-8.21094 2.58203,-1.38672 c 3.90234,-2.10547 10.78125,0.0586 7.90234,5.86719 -1.71875,2.64062 -4.23437,2.8789 -8.58203,5.58593 -1.32031,0.82032 -2.61719,1.64844 -3.84375,2.49219 4.15625,-0.94922 8.37109,-1.84375 12.64063,-2.51953 6.91796,-1.09375 14.23437,-1.92578 21.5664,-2.73437 -1.91797,0.17578 -3.74219,-0.70313 -4.46875,-2.11719 -1.55859,-3.02344 -0.60547,-5.8711 0.91016,-7.42969 1.09765,-1.12891 1.95703,-1.02344 3.62109,-1.39844 l 3.89453,-0.49609 9.52344,-1.21484 2.05078,-14.36329 -76.17969,13.44532 c -2.26171,8.64062 -4.53125,17.29687 -6.6914,25.96093 z m 68.30469,-12.49218 c 2.61718,-0.28516 5.23437,-0.57032 7.83593,-0.86328 z m 21.53515,-2.57813 c 4.83594,-0.69531 9.5,-1.49609 13.85547,-2.47656 12.48438,-2.8125 15.50781,-6.30859 21.1875,-7.04688 4.89063,-2.5 9.52734,-5.21484 14.03516,-8.01953 0.34765,-1.52734 0.67187,-3.05859 0.94922,-4.58984 l 7.27343,-23.83203 c 0.51953,-1.23828 1.02735,-2.48047 1.51953,-3.73047 l -0.0547,0.0156 c -11.07422,3.07422 -22.91797,10.69922 -36.17188,20.12891 l -17.61328,3.10938 -3.14844,14.43359 10.50782,-1.35547 c 2.91406,0.96875 9.98437,2.55469 3.35546,9.55469 z m 68.06641,-29.03515 c 7.07031,-2.87891 16.68359,-5.21094 22.0039,-8.04688 l 26.0586,-8.48828 c 1.18359,-6.00781 2.02734,-12.17969 2.9414,-18.58203 -4.27343,1.01953 -7.23828,1.7539 -7.61718,1.90234 l -35.09375,8.3711 c -0.9336,2.90625 -1.92188,5.82031 -2.96485,8.79296 -1.84375,5.26954 -3.63672,10.59375 -5.32812,16.05079 z m 62.24609,-21.15235 22.84766,-7.4375 74.51562,-25.05859 54.90625,-18.48438 -61.68359,14.77344 c -2.80078,0.66797 -50.43359,10.83984 -63.59766,13.47656 -2.94922,0.58985 -13.84375,3.06641 -24.27734,5.48828 -0.69922,5.69532 -1.58594,11.4336 -2.71094,17.24219"
         id="path7" />
      <path
         inkscape:connector-curvature="0"
         style="fill:#f5cf17;fill-opacity:1;fill-rule:evenodd;stroke:none"
         d="m 196.16797,167.41797 -26.15625,31.70312 c 7.85547,-0.78515 16.52734,-1.73828 25.78125,-2.82031 l 0.008,-0.0156 0.22656,-0.40625 0.11719,-0.20704 0.16406,-0.28906 0.2461,-0.42578 0.0664,-0.11719 0.1211,-0.20703 0.125,-0.21094 0.0195,-0.0352 0.18359,-0.3086 0.0391,-0.0703 0.125,-0.20703 0.10938,-0.17969 0.0156,-0.0273 0.35547,-0.58594 0.004,-0.008 0.0195,-0.0273 c 0.12109,-0.19532 0.24219,-0.39454 0.36328,-0.59375 l 0.0156,-0.0234 0.375,-0.59766 0.0117,-0.0234 0.26171,-0.41015 0.11719,-0.1875 0.0156,-0.0195 c 0.11718,-0.1875 0.23828,-0.375 0.35937,-0.5586 l 0.0352,-0.0586 0.13672,-0.20703 0.13281,-0.20703 0.12109,-0.1875 0.0117,-0.0156 0.26953,-0.40625 0,-0.004 0.125,-0.19141 0.0117,-0.0156 0.27344,-0.41015 0.125,-0.19141 0.0117,-0.0156 0.40234,-0.60547 0.0117,-0.0117 0.35547,-0.52734 0.0508,-0.0781 0.008,-0.0117 0.14063,-0.20703 0.14062,-0.20312 0.13282,-0.19922 0.008,-0.008 0.14062,-0.20703 0.004,-0.008 0.39453,-0.57031 0.0234,-0.0391 0.14453,-0.20704 0.13672,-0.19921 0.004,-0.004 0.0391,-0.0547 0.51953,-0.7539 0.0234,-0.0312 c 0.38281,-0.54688 0.76171,-1.09375 1.14843,-1.64063 0.043,-0.043 0.0898,-0.0898 0.14063,-0.13672 l 0.0547,-0.0508 c 0.0508,-0.0547 0.10546,-0.10547 0.15625,-0.16016 l 0.0117,-0.0117 0.16016,-0.16797 0.0742,-0.082 0.15234,-0.16407 0.0312,-0.0352 c 0.10938,-0.1211 0.22657,-0.25391 0.34375,-0.39063 l 0.0859,-0.0977 0.0664,-0.0703 0.15625,-0.17968 0.0234,-0.0312 0.13672,-0.15235 0.125,-0.14453 0.0391,-0.0469 0.17187,-0.19532 c 0.17188,-0.19531 0.35156,-0.39843 0.53906,-0.60937 l 0.0273,-0.0352 0.16797,-0.1875 0.0156,-0.0156 0.19922,-0.22657 0.0312,-0.0352 0.17969,-0.19531 0.21484,-0.23829 0.22266,-0.24218 0.008,-0.008 0.19531,-0.20312 0.0547,-0.0625 0.32031,-0.33594 c 0.21094,-0.22656 0.4336,-0.45312 0.66406,-0.6875 l 0.30079,-0.30078 0.20312,-0.19922 0.0156,-0.0156 0.28125,-0.27344 0.21875,-0.21094 0.16796,-0.16015 c 0.14454,-0.13672 0.29688,-0.27735 0.44922,-0.42188 l 0.0703,-0.0664 0.29687,-0.26953 0.004,0 0.32031,-0.29297 0.22266,-0.19531 0.17968,-0.15625 0.23438,-0.19922 c 0.15234,-0.13281 0.30859,-0.26562 0.46875,-0.40234 l 0.0508,-0.0391 c 0.14062,-0.1211 0.28906,-0.23828 0.4375,-0.35938 m 1.46094,-1.14844 c 0.14062,-0.10937 0.28125,-0.21484 0.42578,-0.32031 l 0.16015,-0.11719 c 0.17579,-0.13281 0.35547,-0.26171 0.53907,-0.39453 l 0.22656,-0.15625 0.38281,-0.26953 0.36719,-0.2539 0.42578,-0.28516 0.24609,-0.16406 c 0.40625,-0.26563 0.82422,-0.53125 1.25391,-0.80078 l 0.25391,-0.15625 c 0.20312,-0.1211 0.40625,-0.2461 0.61328,-0.3711 l 0.27734,-0.16015 0.44141,-0.25782 0.38672,-0.22265 c 0.19531,-0.10938 0.39453,-0.21875 0.59375,-0.32813 l 0.24609,-0.13281 c 0.1875,-0.10156 0.375,-0.20313 0.56641,-0.30469 l 0.4414,-0.23047 0.45703,-0.23437 0.3711,-0.1875 c 0.22656,-0.11328 0.45312,-0.22266 0.6875,-0.33594 0.13672,-0.0664 0.27344,-0.12891 0.41015,-0.19531 l 0.40235,-0.1875 c 0.13281,-0.0625 0.26953,-0.12891 0.40625,-0.19141 l 0.008,0 -0.60547,0.0508 -28.30859,0.45313 m 13.77734,27.18359 c 14.48438,-1.77734 29.96875,-3.79297 45.66797,-5.90625 l 3.13281,-13.0625 c -0.86328,-2.58203 -17.21875,-3.95312 -26.55468,0.96875 -0.19922,0.0937 -0.39454,0.1875 -0.59375,0.28125 l -0.13282,0.0625 c -0.41015,0.19531 -0.82031,0.39844 -1.22656,0.60156 l -0.0312,0.0156 c -0.41406,0.21094 -0.82812,0.42578 -1.23437,0.64453 l -0.0898,0.0508 c -0.82031,0.4375 -1.6289,0.89844 -2.42187,1.3711 l -0.0937,0.0547 c -0.1836,0.11328 -0.36719,0.22266 -0.55078,0.33594 l -0.10157,0.0625 c -0.17187,0.10547 -0.34375,0.21484 -0.51562,0.32031 l -0.0312,0.0195 c -0.39844,0.25 -0.79688,0.50782 -1.1875,0.76954 l -0.0469,0.0312 c -1.55468,1.03125 -3.04687,2.1289 -4.46484,3.27734 l -0.17969,0.14453 c -0.13672,0.10938 -0.26953,0.22266 -0.40625,0.33203 l -0.0391,0.0352 c -0.16797,0.14062 -0.33594,0.28125 -0.5,0.42187 l -0.0547,0.0469 c -0.33594,0.28515 -0.66406,0.57422 -0.99219,0.86719 l -0.0312,0.0273 c -0.32812,0.29687 -0.65234,0.59766 -0.97265,0.89844 l -0.0391,0.0352 c -0.3086,0.29297 -0.61719,0.58985 -0.91797,0.89063 l -0.0703,0.0703 c -0.30078,0.30078 -0.59765,0.60547 -0.89062,0.91016 l -0.0352,0.0391 c -0.60547,0.63281 -1.1875,1.28125 -1.74218,1.93359 l -0.0156,0.0195 c -0.25,0.28907 -0.49219,0.58204 -0.72656,0.875 l -0.14453,0.17969 c -0.10938,0.13672 -0.21875,0.27344 -0.32422,0.41016 l -0.0703,0.0937 -0.28516,0.36719 -0.10156,0.13281 c -0.11328,0.15234 -0.22266,0.30078 -0.33594,0.45312 l -0.0117,0.0156 c -0.10156,0.14062 -0.20312,0.28125 -0.30078,0.42578 l -0.0859,0.11328 -0.19922,0.28906 z m 62.56641,-8.20703 c 38.44531,-5.29687 76.44922,-10.91406 102.41797,-14.89453 8.5,-4.37109 27.60547,-15.64844 38.40234,-18.48047 l 1.1875,-0.3125 c 0.39844,-1.30469 0.78125,-2.60547 1.15234,-3.91016 l 0.0312,-0.10156 0.0586,-0.21484 0.0351,-0.1211 0.0937,-0.33203 0.15625,-0.55078 0.0352,-0.11719 0.0391,-0.14843 0.0508,-0.1875 c 0.1875,-0.66797 0.36719,-1.33594 0.54688,-2 l 0.0898,-0.33594 0.004,-0.0156 0.0859,-0.3164 0.0859,-0.33203 0.0899,-0.33594 0.17187,-0.66406 0.0664,-0.25391 0.0195,-0.0781 0.0859,-0.33204 0.0586,-0.22265 0.10156,-0.40625 0.0899,-0.35156 0.004,-0.0156 0.0859,-0.33203 0.14844,-0.59375 0.0859,-0.34766 0.0117,-0.0547 0.082,-0.33204 0.0195,-0.0898 0.13281,-0.54297 0.008,-0.0273 0.0156,-0.0586 0.0664,-0.27343 0.0781,-0.32813 0.008,-0.0273 0.0195,-0.0937 0.12891,-0.53516 0,-0.004 0.14844,-0.6211 0.008,-0.0391 0.13672,-0.58203 0,-0.008 0.0156,-0.0703 c 0.1875,-0.80859 0.3711,-1.61718 0.55078,-2.42578 l 0.0469,-0.19531 0.0703,-0.32813 0.0195,-0.0977 0.0508,-0.23047 0.0742,-0.32422 0.0117,-0.0664 0.0586,-0.26171 0.0703,-0.32422 0.004,-0.0312 0.0625,-0.29297 0.0703,-0.32422 0,-0.004 -18.83985,2.33594 c -17.47656,6.3125 -25.30859,10.10547 -37.96484,18.3125 l -89.61328,10.46094 -1.94531,0.17187 c 0.38281,0.26953 0.75,0.5625 1.09765,0.87891 l 0.0352,0.0312 c 0.0859,0.082 0.16797,0.16016 0.25,0.24219 l 0.008,0.008 c 0.125,0.125 0.24609,0.25391 0.36719,0.38672 l 0.008,0.008 c 0.0781,0.0859 0.15625,0.17578 0.23438,0.26953 0.0469,0.0547 0.0937,0.10938 0.13671,0.16797 0.0586,0.0742 0.11329,0.14844 0.17188,0.22266 l 0.0898,0.125 c 0.0547,0.0742 0.10938,0.15234 0.16016,0.22656 0.0391,0.0586 0.0781,0.11719 0.11719,0.17969 0.0586,0.0859 0.11328,0.17578 0.16797,0.26953 0.043,0.0742 0.0859,0.14844 0.1289,0.22265 0.0312,0.0586 0.0625,0.11719 0.0977,0.17969 0.043,0.0859 0.0898,0.17578 0.13281,0.26563 l 0.082,0.16797 c 0.0469,0.10546 0.0899,0.21093 0.13672,0.3164 l 0.0586,0.14453 c 0.0508,0.125 0.0977,0.25 0.14063,0.37891 l 0.0352,0.10547 c 0.0469,0.13281 0.0898,0.26953 0.1289,0.41015 l 0.0312,0.11329 c 0.0352,0.13281 0.0703,0.26953 0.10156,0.40625 l 0.0274,0.11718 c 0.0351,0.15235 0.0625,0.3125 0.0898,0.47266 l 0.0195,0.0977 c 0.0234,0.15234 0.043,0.30859 0.0625,0.46484 l 0.0156,0.13281 c 0.0156,0.15625 0.0312,0.31641 0.043,0.48047 l 0.008,0.10938 c 0.008,0.1875 0.0156,0.375 0.0195,0.5664 l 0,0.0547 c 0.004,0.19531 0,0.39844 -0.008,0.60156 l 0,0.0352 c -0.008,0.20703 -0.0195,0.41797 -0.0352,0.63281 l -0.004,0.0781 c -0.0352,0.44531 -0.0937,0.90234 -0.16797,1.3789 l -0.008,0.0508 c -0.0391,0.23047 -0.082,0.46875 -0.13281,0.71094 l -0.0117,0.0625 c -0.0508,0.25 -0.10547,0.5 -0.16797,0.75781 l -0.16796,0.67969 -0.004,0.0234 -0.33594,1.37109 -0.043,0.17188 -0.043,0.17578 -0.0742,0.30469 -0.0156,0.0703 -0.12109,0.48828 -0.043,0.17578 -0.12891,0.51563 -0.043,0.17578 -0.0117,0.0547 -0.33203,1.33204 c -0.45703,1.84765 -0.92187,3.69531 -1.39062,5.54687 z m 196.10547,-46.72266 0.85547,-0.15625 0.0508,-13.75781 -20.76172,2.17578 -18.89844,2.33985 0.008,0 c 0.0586,0.0352 0.1211,0.0664 0.1836,0.10156 l 0.0625,0.0352 c 0.0781,0.0469 0.15625,0.0937 0.23828,0.14453 l 0.0195,0.0117 c 0.15625,0.0977 0.3125,0.20312 0.46484,0.32031 l 0.10938,0.082 c 0.0547,0.0391 0.10937,0.082 0.16015,0.125 l 0.0625,0.0469 0.0586,0.0508 0.0195,0.0156 0.11719,0.0977 c 0.0508,0.0469 0.10547,0.0937 0.15625,0.14062 0.0508,0.043 0.0976,0.0898 0.14843,0.13672 0.0586,0.0586 0.1211,0.11719 0.17969,0.17578 l 0.0547,0.0586 c 0.0664,0.0664 0.12891,0.13281 0.19531,0.20312 l 0.0664,0.0742 c 0.0703,0.0742 0.13672,0.15234 0.20312,0.23047 l 0.0469,0.0586 c 0.0664,0.0781 0.1289,0.15625 0.19531,0.23438 l 0.0742,0.0977 c 0.0703,0.0898 0.14062,0.1836 0.21094,0.27735 l 0.0273,0.0391 c 0.0703,0.0977 0.14063,0.19922 0.21094,0.30469 l 0.043,0.0586 c 0.0664,0.10547 0.13672,0.21094 0.20312,0.31641 l 0.0391,0.0625 c 0.0742,0.12109 0.15235,0.24609 0.22657,0.375 l -0.0352,0.23437 -0.0312,0.23438 -0.0273,0.19922 -0.004,0.0352 -0.008,0.0391 -0.0586,0.42188 0,0.008 -0.0234,0.16406 -0.0117,0.0703 -0.0352,0.23047 -0.0547,0.35937 -0.0117,0.10547 -0.0703,0.46094 -0.0351,0.21093 0,0.0195 -0.0391,0.22656 -0.0351,0.23047 -0.008,0.0586 -0.0274,0.17188 -0.0586,0.34765 -0.0508,0.31641 0,0.0195 -0.0391,0.22656 -0.0351,0.21875 -0.004,0.008 c -0.0469,0.28907 -0.0937,0.57422 -0.14453,0.86329 l -0.0156,0.0937 c -0.0742,0.42968 -0.15235,0.85937 -0.23047,1.28515 l -0.0391,0.22266 -0.0156,0.082 -0.0234,0.14062 -0.0195,0.10157 c -0.42969,2.32422 -0.90234,4.58593 -1.41406,6.80468 m 53.66797,-11.6289 4.53515,-0.82813 114.67188,-23.85937 -93.35547,9.41797 -25.12891,2.63281 c -0.14843,3.61719 -0.34375,7.23437 -0.59765,10.85937 l -0.0117,0.19532 -0.004,0.0273 -0.0547,0.76563 -0.0117,0.19531 -0.0156,0.19922 z"
         id="path9" />
      <path
         inkscape:connector-curvature="0"
         style="fill:none;stroke:#ffffff;stroke-width:2.83459997;stroke-linecap:butt;stroke-linejoin:miter;stroke-miterlimit:22.9255867;stroke-opacity:1"
         d="m 216.96875,359.61328 c 2.69922,2.1875 3.70312,6.3125 3.01172,9.46875 -7.2461,2.12891 -22.67969,12.65234 -14.99219,36.51953 1.65625,11.39453 13.05078,23.25 27.20313,29.79688 9.33593,4.92187 25.6914,3.55078 26.55468,0.96875 L 237.17578,346.48437 236.75781,344.75 170.33203,330.46484 c -4.28125,-4.5625 -4.92969,-10.57812 -4.85547,-15.86718 l 78.69922,16.83984 c 5.96484,3.46094 7.33594,6.92187 7.98828,10.38281 5.97656,31.6211 15.49219,63.4961 23.10156,94.8711 4.14844,17.14843 -17.05468,15.35937 -15.87109,15.87109 -40.85937,-2.07422 -51.46875,-20.36328 -55.05469,-23.64453 -9.32812,-13.3086 -17.46093,-25.78516 -14.57422,-43.39453 3.5,-8.63672 9.17969,-20.17969 27.20313,-25.91016 z"
         transform="matrix(1,0,0,-1,0,612)"
         id="path11" />
      <path
         inkscape:connector-curvature="0"
         style="fill:#cc0c73;fill-opacity:1;fill-rule:evenodd;stroke:none"
         d="m 216.96875,252.38672 c 2.69922,-2.1875 3.70312,-6.3125 3.01172,-9.46875 -7.2461,-2.12891 -22.67969,-12.65235 -14.99219,-36.51953 1.65625,-11.39453 13.05078,-23.25 27.20313,-29.79688 9.33593,-4.92187 25.6914,-3.55078 26.55468,-0.96875 l -21.57031,89.88281 -0.41797,1.73438 -66.42578,14.28516 c -4.28125,4.5625 -4.92969,10.57812 -4.85547,15.86718 l 78.69922,-16.83984 c 5.96484,-3.46094 7.33594,-6.92188 7.98828,-10.38281 5.97656,-31.6211 15.49219,-63.4961 23.10156,-94.8711 4.14844,-17.14843 -17.05468,-15.35937 -15.87109,-15.87109 -40.85937,2.07422 -51.46875,20.36328 -55.05469,23.64453 -9.32812,13.30859 -17.46093,25.78516 -14.57422,43.39453 3.5,8.63672 9.17969,20.17969 27.20313,25.91016"
         id="path13" />
      <path
         inkscape:connector-curvature="0"
         style="fill:none;stroke:#ffffff;stroke-width:2.83459997;stroke-linecap:butt;stroke-linejoin:miter;stroke-miterlimit:22.9255867;stroke-opacity:1"
         d="m 306.07031,394.35156 c 2.87891,5.8086 -4,7.97266 -7.90234,5.86719 l -2.58203,-1.38672 -15.28516,-8.21094 c -5.07812,-5.51172 -5.63672,-8.54297 -5.42578,-15.25781 l 4.41016,-9.49219 c -4.51172,-7.41797 -12.09766,-15.01172 -10.1836,-24.10156 1.01953,-4.83203 4.17188,-7.48828 11.51953,-6.78906 4.70703,0.44922 9.1836,2.3125 13.92188,3.05469 27.67578,4.33593 54.94531,9.45703 82.73047,13.25781 9.19922,3.92578 1.86718,11.03515 2.16797,11.46094 l -3.90625,-0.5 -32.69922,-4.8125 7.5,36.76562 15.71093,3.8125 c 6.62891,7 -0.4414,8.58594 -3.35546,9.55469 l -10.50782,-1.35547 4.06641,18.64844 c -3.95703,2.08203 -8.48438,2.82031 -11.86719,0.67968 l -3.05078,-21.36328 -9.52344,-1.21484 -3.89453,-0.49609 c -1.66406,-0.375 -2.52344,-0.26954 -3.62109,-1.39844 -1.51563,-1.5586 -2.46875,-4.40625 -0.91016,-7.42969 0.73828,-1.44141 2.61328,-2.32422 4.57031,-2.10937 l 8.85547,0.98046 c -2.89843,-12.5 -5.80078,-24.99609 -8.69922,-37.49218 l -36.61718,-7.80078 c -2.625,-1.02344 -5.45313,0.46484 -6.75782,0.89062 -1.49218,0.49219 -1.51171,2.83594 0.41407,6.23047 4.68359,6.01562 10.40625,5.53516 16.30078,8.72266 9.54297,5.16015 7.01953,8.54687 3.68359,10.08203 -2.72656,1.25 -4.01562,0.46484 -6.74609,-0.41016 l -5.53906,-1.78125 c -6.75782,-0.51172 -8.67579,3.67969 -5.76563,9.15625 2.00391,3.21484 6.08594,5.96484 10.40625,8.65234 4.34766,2.70704 6.86328,2.94532 8.58203,5.58594 z"
         transform="matrix(1,0,0,-1,0,612)"
         id="path15" />
      <path
         inkscape:connector-curvature="0"
         style="fill:#cc0c73;fill-opacity:1;fill-rule:evenodd;stroke:none"
         d="m 306.07031,217.64844 c 2.87891,-5.8086 -4,-7.97266 -7.90234,-5.86719 l -2.58203,1.38672 -15.28516,8.21094 c -5.07812,5.51171 -5.63672,8.54296 -5.42578,15.25781 l 4.41016,9.49219 c -4.51172,7.41796 -12.09766,15.01171 -10.1836,24.10156 1.01953,4.83203 4.17188,7.48828 11.51953,6.78906 4.70703,-0.44922 9.1836,-2.3125 13.92188,-3.05469 27.67578,-4.33593 54.94531,-9.45703 82.73047,-13.25781 9.19922,-3.92578 1.86718,-11.03516 2.16797,-11.46094 l -3.90625,0.5 -32.69922,4.8125 7.5,-36.76562 15.71093,-3.8125 c 6.62891,-7 -0.4414,-8.58594 -3.35546,-9.55469 l -10.50782,1.35547 4.06641,-18.64844 c -3.95703,-2.08203 -8.48438,-2.82031 -11.86719,-0.67969 l -3.05078,21.36329 -9.52344,1.21484 -3.89453,0.49609 c -1.66406,0.375 -2.52344,0.26953 -3.62109,1.39844 -1.51563,1.55859 -2.46875,4.40625 -0.91016,7.42969 0.73828,1.4414 2.61328,2.32422 4.57031,2.10937 l 8.85547,-0.98047 c -2.89843,12.5 -5.80078,24.9961 -8.69922,37.49219 l -36.61718,7.80078 c -2.625,1.02344 -5.45313,-0.46484 -6.75782,-0.89062 -1.49218,-0.49219 -1.51171,-2.83594 0.41407,-6.23047 4.68359,-6.01563 10.40625,-5.53516 16.30078,-8.72266 9.54297,-5.16015 7.01953,-8.54687 3.68359,-10.08203 -2.72656,-1.25 -4.01562,-0.46484 -6.74609,0.41016 l -5.53906,1.78125 c -6.75782,0.51172 -8.67579,-3.67969 -5.76563,-9.15625 2.00391,-3.21485 6.08594,-5.96485 10.40625,-8.65235 4.34766,-2.70703 6.86328,-2.94531 8.58203,-5.58593"
         id="path17" />
      <path
         inkscape:connector-curvature="0"
         style="fill:none;stroke:#ffffff;stroke-width:2.83459997;stroke-linecap:butt;stroke-linejoin:miter;stroke-miterlimit:22.9255867;stroke-opacity:1"
         d="m 419.96094,480.5 c -2.79688,-13.17969 -6.76953,-27.14453 -12.3086,-40.32422 l -7.27343,-23.83203 c -3.03516,-16.62891 -11.06641,-32.73438 -3.11329,-50.52734 9.73047,-12.39454 26.88672,-5.58594 31.49219,-4.15235 18.63672,15.64844 33.94141,20.03516 50.52735,76.13672 5.41015,24.14453 6.43359,46.83594 6.57421,70.25391 -5.42187,5.05468 -12.3789,4.73437 -16.26562,-1.73047 l -0.17188,-47.96094 c -3.46093,-24.24609 -5.89843,-45.16016 -29.58984,-66.58984 -5.67578,-5.67578 -29.98047,-34.89063 -31.49219,-11.07422 1.88672,10.05078 3.85938,20.10547 6.47266,30 2.64062,10 5.70312,19.37109 8.93359,28.59765 4.42578,12.62891 7.9375,24.22657 9.90235,38.55469 -5.08594,8.78125 -13.6875,2.64844 -13.6875,2.64844 z"
         transform="matrix(1,0,0,-1,0,612)"
         id="path19" />
      <path
         inkscape:connector-curvature="0"
         style="fill:#cc0c73;fill-opacity:1;fill-rule:evenodd;stroke:none"
         d="m 419.96094,131.5 c -2.79688,13.17969 -6.76953,27.14453 -12.3086,40.32422 l -7.27343,23.83203 c -3.03516,16.62891 -11.06641,32.73437 -3.11329,50.52734 9.73047,12.39453 26.88672,5.58594 31.49219,4.15235 18.63672,-15.64844 33.94141,-20.03516 50.52735,-76.13672 5.41015,-24.14453 6.43359,-46.83594 6.57421,-70.25391 -5.42187,-5.054685 -12.3789,-4.734372 -16.26562,1.73047 l -0.17188,47.96094 c -3.46093,24.24609 -5.89843,45.16015 -29.58984,66.58984 -5.67578,5.67578 -29.98047,34.89063 -31.49219,11.07422 1.88672,-10.05078 3.85938,-20.10547 6.47266,-30 2.64062,-10 5.70312,-19.37109 8.93359,-28.59766 4.42578,-12.6289 7.9375,-24.22656 9.90235,-38.55468 C 428.5625,125.36719 419.96094,131.5 419.96094,131.5"
         id="path21" />
      <path
         inkscape:connector-curvature="0"
         style="fill:#cc0c73;fill-opacity:1;fill-rule:evenodd;stroke:#ffffff;stroke-width:2.83459997;stroke-linecap:butt;stroke-linejoin:miter;stroke-miterlimit:22.9255867;stroke-opacity:1"
         d="m 622.93359,395.95703 c 2.3125,3.66406 1.11719,7.33594 -0.875,9.05859 -0.67187,0.58204 -2.12109,0.75 -3.49218,0.73438 -2.34375,-0.0312 -4.78907,-0.85156 -7.11719,-1.27734 l -27.29688,-5.01172 2,16.51172 c 0.60938,8.00781 2.66797,13.34375 4.00391,20.01562 2.08984,5.65234 0.46484,9.83203 -1.58594,12.76172 -1.54297,2.20312 -3.625,1.37109 -5.1875,2.04297 -18.88281,0.52344 -23.66797,-3.72266 -24.26562,-4.33203 l -0.22657,-0.89844 c -2.65234,2.69141 -6.67968,3.89844 -9.23828,2.76562 -1.87109,-0.82421 -4.72265,-4.29687 -5.35156,-6.34375 -1.88281,-6.10156 -1.09375,-11.9375 -1.90234,-17.93359 l -2.03125,-15.08203 c -1.00391,-6.08984 -0.67188,-12.30078 -3.00391,-18.26563 l -20.51562,-4.5039 c -2.42969,10.96875 1.74218,19.51562 3.07812,29.10156 0.26563,1.92188 -0.58203,2.17578 -2.39844,2.90234 -3.69531,1.48047 -7.1875,-0.004 -8.9375,-5.98437 l -0.17578,-0.51563 c 0.5625,-9.45703 -3.11719,-22.1914 -9.58203,-28.00781 -5.80078,-3.71094 -11.84375,-6.44922 -17.76562,-2.75 -3.61719,1.40625 -3.29688,3.44922 -2.6836,5.46094 0.69531,2.28125 1.15625,4.58203 1.86719,6.87891 3.22266,8.53906 6.20312,11.36718 8.57422,14.32031 3.32422,3.46484 7.60547,9.17578 11.19531,11.67187 8.0625,6.89453 13.87109,9.0586 22.96875,12.08985 2.71484,0.89843 1.53906,1.60547 0.45703,4.10937 -1.78906,4.13281 -3.71484,7.45703 -11.0039,3.83594 -6.48438,-3.89844 -13.31641,-5.86719 -20.36329,-11.58203 -8.0664,-7.55469 -18.43359,-18.51172 -22.01953,-27.76953 -4.26953,-8.66016 -8.30078,-16.22657 -3.0039,-24.51953 6.41015,-5.75391 14.75781,-4.70313 21.76953,-4.50391 3.49219,0.66797 6.77734,1.22266 10.28906,1.67578 3.92969,0.50781 6.01172,2.60938 8.54688,6.82813 6.17968,-0.21485 5.51171,-5.96094 18.53906,-0.64063 7.32031,0.83984 15.20703,4.03516 21.07422,5.22266 l 0.59765,0.17187 0.36328,2.26563 7.21485,45.34375 c 0.0195,0.10547 0.11328,0.1875 0.17187,0.27734 0.30469,0.48828 0.62891,0.96094 0.96485,1.40625 5.46875,7.24609 14.03906,6.69531 22.3125,3.75 L 572.18359,393.125 c -0.1875,-1.23438 -0.49218,-1.90234 0.28125,-2.96094 1.82422,-2.49219 5.72657,-2.44922 9.1836,-2.21484 z"
         transform="matrix(1,0,0,-1,0,612)"
         id="path23" />
      <path
         inkscape:connector-curvature="0"
         style="fill:#025c51;fill-opacity:1;fill-rule:evenodd;stroke:none"
         d="m 409.11328,318.76172 c -1.99219,1.77734 -4.0625,3.58203 -6.89453,5.41406 -2.11328,1.36719 -5.05078,2.57031 -9.62109,2.04688 -1.46875,-0.16407 -2.22266,-0.60157 -3.39063,-1.55079 -3.33594,-2.71093 -3.9375,-5.78515 -3.67187,-8.93359 0.26171,-3.01172 0.85937,-4.38672 2.64062,-6.91016 11.86328,-16.78125 26.97266,-7.64062 12.49219,8.96875 0.76562,-2.99609 1.28125,-5.27734 1.34375,-7.04296 0.39062,-11.00782 -10.1875,-0.82422 -10.40625,6.17578 -0.125,4.02734 1.62109,4.17968 4.32422,4.66406 3.90625,0.70312 10.41406,-2.17969 13.18359,-2.83203"
         id="path25" />
      <path
         inkscape:connector-curvature="0"
         style="fill:#025c51;fill-opacity:1;fill-rule:evenodd;stroke:#025c51;stroke-width:0.21600001;stroke-linecap:butt;stroke-linejoin:miter;stroke-miterlimit:22.9255867;stroke-opacity:1"
         d="m 459.53516,311.04687 c -1.26563,-3.98046 -3.31641,-6.2539 -6.22266,-10.9414 -0.81641,-1.32031 -0.79297,-2.82422 -0.92969,-4.01563 -0.10547,-0.92187 -0.0625,-1.74218 0.043,-2.46875 0.39453,-2.75 0.23047,-3.33984 3.48828,-3.19531 3.36328,0.66016 4.71094,1.67969 8.13281,1.40234 -2.73437,-2.17578 -4.66406,-3.67187 -8.95703,-5.50781 -1.4414,-0.61719 -2.33984,-0.85937 -3.93359,-0.55078 -2.65625,0.51953 -2.99219,2.26172 -3.32422,3.92969 -0.082,4.79297 1.24609,9.76562 3.70703,14.08594 l -4.125,1.33203 c -1.01562,-2.97266 -2.42187,-6.51172 -5.88281,-9.05078 0.52734,2.88671 1.56641,5.51171 1.09375,7.73437 -0.38672,1.80469 -1.47656,2.89844 -1.78125,4.88672 1.01953,2.64453 1.98828,3.08984 4.55859,2.51562 4.60547,-1.80468 10.54297,-1.46484 14.13282,-0.15625 z"
         transform="matrix(1,0,0,-1,0,612)"
         id="path27" />
      <path
         inkscape:connector-curvature="0"
         style="fill:#025c51;fill-opacity:1;fill-rule:evenodd;stroke:none"
         d="m 500.57031,300.57812 c -1.26562,3.97657 -3.3164,6.25 -6.22265,10.94141 -0.81641,1.31641 -0.79297,2.82422 -0.92969,4.01172 -0.10547,0.92187 -0.0625,1.74609 0.043,2.46875 0.39453,2.75 0.22656,3.33984 3.48828,3.19531 3.36328,-0.65625 4.70703,-1.67969 8.1289,-1.40234 -2.73046,2.17578 -4.66015,3.67187 -8.95312,5.51172 -1.44141,0.61328 -2.33984,0.85547 -3.93359,0.54687 -2.65625,-0.51953 -2.99219,-2.25781 -3.32422,-3.92969 -0.0859,-4.79296 1.24609,-9.76171 3.70703,-14.08593 l -4.125,-1.32813 c -1.01563,2.96875 -2.42578,6.50781 -5.88672,9.04688 0.53125,-2.88282 1.57031,-5.51172 1.09766,-7.73438 -0.38672,-1.80469 -1.47657,-2.89453 -1.78516,-4.88281 1.02344,-2.64844 1.99219,-3.08984 4.5625,-2.51563 4.60156,1.80079 10.54297,1.46094 14.13281,0.15625"
         id="path29" />
      <path
         inkscape:connector-curvature="0"
         style="fill:#025c51;fill-opacity:1;fill-rule:evenodd;stroke:none"
         d="m 525.97656,301.84766 c 0.3086,0.77343 2.03516,3.20312 -1.19531,4.86718 -2.73047,0.9961 -4.57422,0.10157 -5.71094,0.15235 -2.38672,-0.40625 -7.77734,0.55468 -6.02734,3.26562 0.17969,0.28125 0.4375,0.58203 0.78125,0.90235 2.125,-0.35157 4.08203,-0.40235 4.79297,0.38671 0.55468,0.61719 1.53906,2.7461 -1.08985,3.625 -2.86718,0.74219 -4.96484,1.71875 -6.65234,2.9336 -2.51172,3.4375 0.69922,4.08984 2.02344,4.6289 1.36328,0.59375 3.58984,-0.1875 6.33593,-0.51562 5.36329,-0.64063 7.35938,-2.42188 10.64063,-4.11328 -0.37891,1.83594 -2.36719,3.80469 -3.55078,5.70703 -3.17188,2.35547 -7.28906,2.75781 -11.10938,2.625 -4.5,-0.14063 -10.70312,0.24609 -9.41406,-5.40234 0.48438,-2.89454 2.00391,-4.98829 3.70313,-6.78907 -1.01954,-2.17578 -1.08985,-4.11718 -0.92579,-6.17187 0.69922,-2.70313 2.46875,-4.16797 5.36719,-5.12891 2.41797,-0.14062 5.44531,1.0586 8.04688,0.0274 1.35937,-0.53516 2.38672,-0.54297 3.98437,-1"
         id="path31" />
      <path
         inkscape:connector-curvature="0"
         style="fill:#025c51;fill-opacity:1;fill-rule:evenodd;stroke:none"
         d="m 532.65234,302.39062 c 0.27735,-2.67578 3.625,-2.90234 5.57813,-1.16015 0.23828,1.35156 0.18359,2.67578 0.22265,3.96094 3.10547,-1.52735 5.17969,-2.45313 10.25,-3.26172 3.92969,0.44531 4.83204,2.12109 4.62891,6.94531 -1.47266,5.31641 -3.70703,9.46484 -6.17187,14.19531 4.30859,0.13672 8.5039,-1.59375 11.88281,-4.32031 -2.44531,5.12109 -6.06641,7.14453 -10.03125,7.38281 -4.21485,0.25781 -9.16797,0.95703 -5.71094,-4.75781 3.09375,-5.57813 4.25781,-9.5 5.09375,-13.42578 -0.17187,-4.10938 -4.08594,-1.01953 -5.40234,-0.77344 -6.23047,3.75391 -5.59766,9.14453 -7.8711,13.89063 l -1.69531,4.6289 -4.94141,-0.30859 c 2.37891,-7.48828 4.64063,-15.32813 4.16797,-22.9961"
         id="path33" />
      <path
         inkscape:connector-curvature="0"
         style="fill:#025c51;fill-opacity:1;fill-rule:evenodd;stroke:none"
         d="m 566.91406,286.49609 4.32031,0 c -1.10937,2.86328 -1.58593,5.27735 -1.85937,8.69141 -0.21094,2.64062 -1.01172,5.27734 -1.22656,7.20312 l 6.35937,-0.13671 c 0.76563,1.48437 0.86719,2.97265 -0.33984,4.46093 l -7.25391,0.15235 c -0.625,5.21875 -5.0664,19.02734 0.61719,15.89453 l 6.78125,-3.3125 c 0.37891,-0.20313 0.82812,-0.41406 1.11328,-0.62891 0.10156,0.23047 0.23047,0.63281 0.0859,0.875 -0.0352,0.0625 -1.1211,1.63281 -2.35938,2.90625 -0.91797,0.94141 -2.27734,2.15235 -3.55468,2.95703 -2.40235,1.51172 -5.19922,0.75391 -6.97266,0.0703 -2.24219,-1.10157 -2.91797,-2.28516 -2.96484,-4.71875 l 1.11328,-5.55469 c 0.71093,-2.75781 1.14843,-5.32813 1.68359,-8.42578 l -5.07422,0.20703 1.6211,-4.62891 3.47656,0.12891 c 1.1914,-3.20313 1.82812,-5.95703 2.65625,-9.29297 0.57031,-2.3125 1.12109,-4.57031 1.77734,-6.84766"
         id="path35" />
      <path
         inkscape:connector-curvature="0"
         style="fill:#025c51;fill-opacity:1;fill-rule:evenodd;stroke:none"
         d="m 622.25,292.20703 c 5.29687,-2.73437 7.61328,-4.76562 10.10156,-9.26172 1.83594,-3.97265 -1.29687,-6.24219 -3.08594,-7.87109 -4.29296,-2.27735 -7.23828,1.13281 -8.48828,2.3164 -3.9375,6.01954 -5.00781,11.98047 -6.01953,18.05469 -1.36719,5.16016 -3.30078,9.84375 -6.375,14.91016 l -2.15234,5.95312 c -0.55078,2.03907 -1.125,8.9336 1.28906,10.06641 4.76953,-0.30469 10.4375,-0.99219 13.54297,-2.06641 0.46484,-0.36718 0.83594,-0.7539 1.17187,-1.10937 2.97657,-3.14844 2.89844,-4.35547 2.79688,-4.80078 0.60156,-0.89453 -3.98828,3.60156 -6.72656,2.66797 -2.73438,-0.9375 -7.34375,0.48046 -9.09766,2.83593 -0.90234,0.28125 -0.25781,-5.46875 3.85156,-12.09765 4.11328,-6.62891 4.4336,-12.53907 5.86719,-18.51953 0.89453,-4.26563 2.79297,-8.4375 4.44141,-12.80079 1.1289,-1.625 3.73828,-5.54296 4.97265,0.91797 0.58203,2.36719 -2.32031,7.34766 -6.08984,10.80469"
         id="path37" />
      <path
         inkscape:connector-curvature="0"
         style="fill:none;stroke:#353333;stroke-width:0.21600001;stroke-linecap:butt;stroke-linejoin:miter;stroke-miterlimit:22.9255867;stroke-opacity:1"
         d="m 584.04687,306.21484 -1.85546,-1.23828"
         transform="matrix(1,0,0,-1,0,612)"
         id="path39" />
      <path
         inkscape:connector-curvature="0"
         style="fill:#025c51;fill-opacity:1;fill-rule:evenodd;stroke:none"
         d="m 425.48047,322.11719 c 0.0976,1.05468 0.82812,4.20703 7.09375,2.52343 3.2539,-1.17187 4.98437,-2.42187 7.24609,-4.66796 -3.83203,0.65625 -10.57812,4.71875 -9.6875,-0.6875 l 2.0586,-4.51172 c 1.89453,-5.30469 1.09765,-10.22657 -2.13672,-12.69922 -2.82032,-1.45313 -5.33594,-0.61328 -8.23438,0.45703 -6.41015,2.87109 -8.30859,5.95312 -10.375,9.02734 -2.51953,4.07422 -1.82812,7.9375 -0.23047,11.85938 3.66016,3.49219 8.95703,2.69531 14.26563,-1.30078 z m -3.66016,-16.60157 c 3.6836,-2.47656 6.83594,-0.8164 7.16797,0.61329 1.26172,5.25781 -2.26562,12.36328 -7.32422,14.4414 -3.59765,1.48047 -7.34765,1.03516 -7.70312,-3.80859 0.86718,-7.34766 5.92578,-10.5586 7.85937,-11.2461"
         id="path41" />
      <path
         inkscape:connector-curvature="0"
         style="fill:#025c51;fill-opacity:1;fill-rule:evenodd;stroke:#025c51;stroke-width:0.21600001;stroke-linecap:butt;stroke-linejoin:miter;stroke-miterlimit:22.9255867;stroke-opacity:1"
         d="m 592.47656,289.20312 c 0.10156,-1.05859 0.83203,-4.21093 7.09766,-2.52734 3.2539,1.17578 4.98437,2.42578 7.24609,4.66797 -3.83594,-0.65625 -10.57812,-4.71484 -9.6875,0.69141 l 2.0586,4.51171 c 1.89453,5.30469 1.09765,10.22266 -2.13672,12.69922 -2.82032,1.45313 -5.33985,0.60938 -8.23828,-0.45703 -6.40625,-2.87109 -8.30469,-5.95703 -10.3711,-9.03125 -2.51953,-4.07031 -1.82812,-7.93359 -0.23047,-11.85547 3.66016,-3.49609 8.95703,-2.69922 14.26172,1.30078 z m -3.66015,16.60157 c 3.6875,2.47265 6.83984,0.8164 7.17187,-0.61328 1.26172,-5.25782 -2.26562,-12.36719 -7.32812,-14.44532 -3.59375,-1.47656 -7.34375,-1.03125 -7.69922,3.8125 0.86328,7.34375 5.92578,10.5586 7.85547,11.2461 z"
         transform="matrix(1,0,0,-1,0,612)"
         id="path43" />
      <path
         inkscape:connector-curvature="0"
         style="fill:#4f8c9c;fill-opacity:1;fill-rule:evenodd;stroke:none"
         d="m 640.64453,195.42187 c 4.84766,0 8.77734,3.92969 8.77734,8.77735 0,4.84765 -3.92968,8.77734 -8.77734,8.77734 -4.84766,0 -8.77734,-3.92969 -8.77734,-8.77734 0,-4.84766 3.92968,-8.77735 8.77734,-8.77735"
         id="path45" />
      <path
         inkscape:connector-curvature="0"
         style="fill:#ffffff;fill-opacity:1;fill-rule:evenodd;stroke:none"
         d="m 640.64453,196.70703 c 4.14063,0 7.49219,3.35156 7.49219,7.49219 0,4.13672 -3.35156,7.49219 -7.49219,7.49219 -4.13672,0 -7.49219,-3.35547 -7.49219,-7.49219 0,-4.14063 3.35547,-7.49219 7.49219,-7.49219"
         id="path47" />
      <path
         inkscape:connector-curvature="0"
         style="fill:#025c51;fill-opacity:1;fill-rule:nonzero;stroke:none"
         d="m 637.07422,208.67578 0,-8.95703 3.80859,0 c 0.95703,0 1.65235,0.082 2.08594,0.24219 0.4375,0.16015 0.78125,0.44922 1.04297,0.85937 0.26172,0.41016 0.39453,0.87891 0.39453,1.41016 0,0.67187 -0.19922,1.22656 -0.59375,1.66406 -0.39063,0.4375 -0.98047,0.71484 -1.76172,0.82813 0.38672,0.22656 0.71094,0.47656 0.96094,0.75 0.2539,0.27343 0.59765,0.75781 1.02734,1.45312 l 1.08985,1.75 -2.16016,0 -1.29688,-1.95703 c -0.46484,-0.69531 -0.78515,-1.13281 -0.95703,-1.3125 -0.17187,-0.17969 -0.35156,-0.30469 -0.54297,-0.37109 -0.19531,-0.0664 -0.5,-0.10157 -0.91406,-0.10157 l -0.36719,0 0,3.74219 z m 1.8164,-5.16797 1.33594,0 c 0.86719,0 1.40625,-0.0352 1.625,-0.10937 0.21485,-0.0742 0.38672,-0.19922 0.50781,-0.37891 0.1211,-0.17969 0.17969,-0.40234 0.17969,-0.67187 0,-0.30469 -0.0781,-0.54688 -0.23828,-0.73438 -0.16016,-0.18359 -0.39062,-0.30078 -0.67969,-0.34766 -0.14843,-0.0234 -0.58984,-0.0312 -1.32031,-0.0312 l -1.41016,0 z"
         id="path49" />
    </g>
  </g>
</svg>
